C:\GBW_MyPrograms\PredSimResults\gait1018_esmac\gait1018_esmac_v36.mot
version=1
nRows=6
nColumns=29
inDegrees=yes
endheader
                time	         pelvis_tilt	           pelvis_tx	           pelvis_ty	       hip_flexion_l	       hip_flexion_r	        knee_angle_l	        knee_angle_r	       ankle_angle_l	       ankle_angle_r	    lumbar_extension	hamstrings_r/activation	bifemsh_r/activation	glut_max_r/activation	iliopsoas_r/activation	rect_fem_r/activation	  vasti_r/activation	gastroc_r/activation	 soleus_r/activation	tib_ant_r/activation	hamstrings_l/activation	bifemsh_l/activation	glut_max_l/activation	iliopsoas_l/activation	rect_fem_l/activation	  vasti_l/activation	gastroc_l/activation	 soleus_l/activation	tib_ant_l/activation	
          1.04773781	         -7.92019337	          1.30967227	          0.89604408	         -9.10152533	         28.59968341	        -10.31503422	         -1.29586720	          3.97718215	          5.26962893	          1.64480084	          0.07284413	          0.01131436	          0.02450579	          0.01378549	          0.01617228	          0.01999792	          0.01175294	          0.02627726	          0.20116480	          0.01084708	          0.09176125	          0.01302567	          0.11287860	          0.01383440	          0.01107381	          0.21861731	          0.31507312	          0.01652346	
          1.05821519	         -7.88697801	          1.32592106	          0.89556015	         -8.98597403	         27.67744842	        -12.36810611	         -0.88107490	          2.89393745	          4.62503206	          1.97057497	          0.06578111	          0.01001989	          0.05277342	          0.01173695	          0.01377056	          0.03872090	          0.01000661	          0.02237273	          0.25220033	          0.01000656	          0.07812022	          0.01109813	          0.09609804	          0.01178166	          0.01833444	          0.18611718	          0.26823426	          0.01406710	
          1.06869257	         -7.85041562	          1.34239499	          0.89504169	         -8.68552054	         26.72268691	        -14.74226029	         -0.92566407	          1.61166316	          3.73671008	          2.32208305	          0.07001132	          0.01001798	          0.04507420	          0.01000366	          0.01172628	          0.03296575	          0.01809826	          0.01904752	          0.30494319	          0.02074292	          0.06650711	          0.05001950	          0.08181209	          0.01003774	          0.01563849	          0.15844853	          0.22835789	          0.01197593	
          1.07916995	         -7.81504090	          1.35885532	          0.89463889	         -8.14629674	         25.76360610	        -17.46502687	         -1.08253904	          0.00222107	          2.69412507	          2.67455734	          0.06595873	          0.02735920	          0.10203025	          0.01000144	          0.01000148	          0.02806554	          0.01540797	          0.01621598	          0.44836819	          0.01767355	          0.05662047	          0.04258498	          0.06964995	          0.01000305	          0.02258065	          0.13489315	          0.19440959	          0.01019571	
          1.08964733	         -7.78633817	          1.37500912	          0.89458555	         -7.31511477	         24.87323078	        -20.52792949	         -1.28755493	         -2.13242710	          1.48956556	          2.99758227	          0.06558664	          0.02329483	          0.12722538	          0.01000158	          0.01000340	          0.07292586	          0.01311831	          0.01380576	          0.50780109	          0.01504820	          0.04820372	          0.03625448	          0.05929594	          0.01035792	          0.01922445	          0.11483959	          0.16550812	          0.01000152	
          1.10012470	         -7.76657838	          1.39066037	          0.89499222	         -6.17348704	         24.08142546	        -23.90422860	         -1.63386381	         -4.82378458	          0.57770949	          3.26968660	          0.07138743	          0.01983443	          0.15451535	          0.01000177	          0.01000382	          0.13666380	          0.01117356	          0.01175537	          0.57752338	          0.01281314	          0.04103850	          0.03086497	          0.05048136	          0.04832101	          0.01636677	          0.09776725	          0.14090323	          0.23940517	
